# xmcd
#
# Track frame offsets:
#	150
#	13349
#	24093
#	37220
#	58039
#	71610
#	91637
#	116418
#	127673
#	139195
#	148135
#
# Disc length: 2132 seconds
#
# Revision: 0
# Processed by: cddbd v1.5.2PL0 Copyright (c) Steve Scherf et al.
# Submitted via: EasyCDDAExtractor 8.2.2.1
#
DISCID=9308520b
DTITLE=The Galoots - Yeehaw
DYEAR=1998
DGENRE=Bluegrass
TTITLE0=Georgia Rose
TTITLE1=Midnight Moonlight
TTITLE2=Uncle Penn
TTITLE3=Ring of Fire
TTITLE4=Mystic
TTITLE5=Nellie Caine
TTITLE6=Glendale Train
TTITLE7=Let's Get it On
TTITLE8=Curly Headed Baby
TTITLE9=Dooley
TTITLE10=Mountain Girls
EXTD=
EXTT0=
EXTT1=
EXTT2=
EXTT3=
EXTT4=
EXTT5=
EXTT6=
EXTT7=
EXTT8=
EXTT9=
EXTT10=
PLAYORDER=
